<?xml version="1.0" encoding="utf-8"?>
<!-- Generator: Adobe Illustrator 19.2.1, SVG Export Plug-In . SVG Version: 6.00 Build 0)  -->
<svg version="1.1" id="layer" xmlns="http://www.w3.org/2000/svg" xmlns:xlink="http://www.w3.org/1999/xlink" x="0px" y="0px"
	 viewBox="0 0 652 652" style="enable-background:new 0 0 652 652;" xml:space="preserve">
<style type="text/css">
	.st0{fill:#FFFFFF;}
	.st1{fill:#C6A02F;}
	.st2{fill:#231F20;}
</style>
<g>
	<g>
		<path class="st0" d="M490.9,533.5c0,12.7-9.9,22.6-22.6,22.6H173.5c-12.7,0-22.6-9.9-22.6-22.6V111.2c0-12.7,9.9-22.6,22.6-22.6
			h294.8c12.7,0,22.6,9.9,22.6,22.6C490.9,111.2,490.9,533.5,490.9,533.5z"/>
		<g>
			<g>
				<path class="st1" d="M490.9,533.5c0,12.7-9.9,22.6-22.6,22.6H173.5c-12.7,0-22.6-9.9-22.6-22.6V111.2c0-12.7,9.9-22.6,22.6-22.6
					h294.8c12.7,0,22.6,9.9,22.6,22.6C490.9,111.2,490.9,533.5,490.9,533.5z M507.2,111.2c0-20.8-17.2-38.9-38.9-38.9H173.5
					c-21.7,0-38.9,17.2-38.9,38.9v422.2c0,21.7,17.2,38.9,38.9,38.9h294.8c20.8,0,38.9-17.2,38.9-38.9
					C507.2,533.5,507.2,111.2,507.2,111.2z"/>
			</g>
			<g>
				<path class="st2" d="M178.9,480.1l4.5,18.1h-9L178.9,480.1z M161.8,516.3h8.1l2.7-9h13.6l2.7,9h8.1l-13.6-46.1h-9L161.8,516.3z"
					/>
				<path class="st2" d="M201.6,469.3h8.1v19l14.5-19h9.9l-15.4,19l16.3,27.1h-9.9l-11.8-19.9l-3.6,4.5v15.4h-8.1V469.3z"/>
				<path class="st2" d="M245.9,516.3h-8.1v-46.1h8.1V516.3z"/>
				<path class="st2" d="M257.6,498.2v0.9c0,3.6,0,6.3,0.9,7.2c0.9,1.8,1.8,1.8,3.6,1.8c1.8,0,2.7-0.9,3.6-2.7
					c0-0.9,0.9-2.7,0.9-4.5v-32.5h8.1v32.5c0,3.6-0.9,7.2-1.8,9c-1.8,3.6-5.4,5.4-9.9,5.4c-4.5,0-8.1-1.8-9.9-4.5s-2.7-7.2-2.7-12.7
					v-0.9h7.2V498.2z"/>
				<path class="st2" d="M320.9,483.7c-0.9-3.6-1.8-5.4-4.5-6.3c-0.9-0.9-2.7-0.9-4.5-0.9c-2.7,0-5.4,1.8-7.2,4.5
					c-1.8,2.7-2.7,7.2-2.7,12.7c0,5.4,0.9,9.9,2.7,11.8c1.8,2.7,4.5,3.6,7.2,3.6s4.5-0.9,6.3-2.7s2.7-4.5,2.7-7.2h-8.1V491h15.4
					v25.3h-5.4l-0.9-5.4c-1.8,1.8-2.7,3.6-3.6,4.5c-1.8,1.8-4.5,2.7-7.2,2.7c-4.5,0-9-1.8-11.8-6.3c-3.6-4.5-4.5-9.9-4.5-17.2
					c0-7.2,1.8-13.6,4.5-18.1c3.6-4.5,8.1-6.3,13.6-6.3c4.5,0,8.1,1.8,11.8,4.5c2.7,2.7,4.5,6.3,4.5,10.8h-8.1V483.7z"/>
				<path class="st2" d="M352.5,477.4c1.8,0,2.7,0,3.6,0.9c1.8,0.9,1.8,2.7,1.8,5.4s-0.9,4.5-1.8,5.4c-0.9,0.9-1.8,0.9-3.6,0.9h-8.1
					v-12.7C344.4,477.4,352.5,477.4,352.5,477.4z M354.4,469.3h-18.1v46.1h8.1v-18.1h7.2c1.8,0,3.6,0.9,4.5,1.8
					c0.9,0.9,0.9,2.7,0.9,6.3v4.5c0,0.9,0,2.7,0,3.6c0,0.9,0,1.8,0.9,2.7h9v-0.9c-0.9-0.9-0.9-1.8-1.8-2.7c0-0.9,0-1.8,0-4.5v-2.7
					c0-3.6,0-5.4-0.9-7.2c-0.9-1.8-1.8-2.7-3.6-3.6c1.8-0.9,3.6-2.7,4.5-4.5c0.9-1.8,0.9-4.5,0.9-6.3s0-3.6-0.9-4.5
					c0-1.8-0.9-2.7-1.8-3.6c-0.9-1.8-1.8-2.7-3.6-3.6C358.9,470.2,357.1,469.3,354.4,469.3z"/>
				<path class="st2" d="M390.5,509.1c-2.7,0-5.4-1.8-7.2-4.5c-1.8-2.7-2.7-7.2-2.7-11.8c0-5.4,0.9-9,2.7-11.8
					c1.8-2.7,4.5-4.5,7.2-4.5s5.4,1.8,7.2,4.5c1.8,2.7,2.7,7.2,2.7,11.8c0,5.4-0.9,9-2.7,11.8C395.9,507.3,393.2,509.1,390.5,509.1z
					 M407.7,492.8c0-8.1-1.8-14.5-5.4-19c-2.7-3.6-7.2-5.4-11.8-5.4c-5.4,0-9,1.8-12.7,5.4c-3.6,4.5-5.4,10.8-5.4,19
					c0,8.1,1.8,14.5,5.4,19c2.7,3.6,7.2,5.4,12.7,5.4s9-1.8,11.8-5.4C405.9,507.3,407.7,500.9,407.7,492.8z"/>
				<path class="st2" d="M414,469.3h8.1v28c0,2.7,0,5.4,0.9,7.2c0.9,2.7,2.7,3.6,6.3,3.6c2.7,0,5.4-0.9,6.3-3.6
					c0.9-1.8,0.9-3.6,0.9-7.2v-28h8.1v28.9c0,4.5-0.9,9-1.8,11.8c-2.7,5.4-6.3,7.2-12.7,7.2s-10.8-2.7-12.7-7.2
					c-0.9-2.7-1.8-6.3-1.8-11.8v-28.9H414z"/>
				<path class="st2" d="M471,484.6c0,2.7-0.9,4.5-1.8,5.4c0,0.9-1.8,0.9-3.6,0.9h-7.2v-13.6h7.2c1.8,0,2.7,0.9,3.6,1.8
					C471,480.1,471,481.9,471,484.6z M479.1,484.6c0-5.4-0.9-9-3.6-10.8c-1.8-2.7-5.4-3.6-9-3.6h-16.3v46.1h8.1V500h8.1
					c3.6,0,7.2-0.9,9-3.6C478.2,493.7,479.1,490.1,479.1,484.6z"/>
			</g>
			<g>
				<path class="st2" d="M321.8,403.3c0,0-59.7,79.6-159.1-10.8V119.4c0,0-2.7-18.1,15.4-18.1h286.6c0,0,15.4-2.7,15.4,18.1v272.2
					C480,392.4,396.8,483.7,321.8,403.3z"/>
				<path class="st1" d="M320,237.8c0,0-5.4-16.3-13.6-20.8s-15.4-25.3-6.3-45.2c9-19.9,21.7-40.7,21.7-40.7s25.3,37.1,26.2,57.9
					s-9.9,27.1-14.5,32.5c-4.5,5.4-9.9,8.1-9.9,17.2v38.9c0,0,11.8-29.8,26.2-39.8c9.9-7.2,25.3-13.6,47.9-14.5
					c17.2-0.9,30.7-7.2,30.7-7.2s-9,59.7-77.8,63.3c-6.3,0-21.7-1.8-27.1,6.3l0.9,85c0,0,9-16.3,11.8-26.2
					c3.6-9.9,19.9-51.5,77.8-52.4c11.8,0,45.2-0.9,45.2-0.9s-17.2,47-70.5,71.4c-6.3,2.7-20.8,5.4-37.1,2.7
					c-10.8-1.8-25.3,5.4-23.5,17.2c1.8,10.8,24.4,37.1,69.6,31.6c45.2-5.4,75.9-45.2,75.9-45.2v22.6c0,0-43.4,46.1-102.2,38.9
					c-7.2-0.9-32.5-8.1-51.5-34.4c0,0-21.7,41.6-83.2,33.5c-13.6-1.8-59.7-19.9-71.4-42.5v-19c0,0,28.9,44.3,87.7,46.1
					c56.1,1.8,58.8-32.5,58.8-32.5s5.4-15.4-28-15.4c-34.4,0.9-68.7-14.5-104-76.9c0,0,11.8,2.7,38.9,2.7c26.2,0,75.9,3.6,96.7,76.9
					v-79.6c0,0,0.9-13.6-17.2-9.9c-19,2.7-67.8-0.9-89.5-66c0,0,11.8,7.2,36.2,9c24.4,1.8,60.6,14.5,71.4,57L320,237.8z"/>
				<path class="st2" d="M309.1,275.8l-13.6-9c0,0-9.9,6.3-17.2,8.1c0,0,12.7-7.2,14.5-10.8l-18.1-7.2c0,0-8.1,7.2-16.3,7.2
					c0,0,11.8-4.5,13.6-9l-11.8-5.4c0,0-11.8,5.4-19,4.5c0,0,15.4-3.6,16.3-6.3l-11.8-6.3c0,0-7.2,0.9-14.5,0l10.8-1.8l-13.6-9.9
					l15.4,8.1l-2.7-9l6.3,10.8l15.4,7.2l-2.7-8.1c0,0,4.5,7.2,5.4,9l14.5,7.2c0,0-1.8-14.5-9-20.8c0,0,9.9,7.2,11.8,21.7
					c0,0,18.1,8.1,21.7,10.8c-0.9-1.8-4.5-14.5-10.8-19c0,0,9.9,7.2,12.7,19.9l5.4,5.4L309.1,275.8z"/>
				<path class="st2" d="M321.8,231.5l-0.9-11.8c0,0-13.6-5.4-18.1-14.5c0,0,13.6,10.8,17.2,10.8v-17.2c0,0-9-6.3-14.5-13.6
					c0,0,9.9,8.1,13.6,9.9l-0.9-16.3c0,0-8.1-8.1-9-13.6c0,0,7.2,8.1,10.8,10.8l0.9-17.2c0,0-4.5-5.4-6.3-8.1l6.3,5.4v-11.8
					l1.8,12.7l8.1-6.3l-8.1,9v14.5c0,0,9.9-6.3,11.8-9c0,0-8.1,9.9-11.8,12.7v18.1c0,0,9.9-7.2,12.7-10.8c0,0-9.9,11.8-12.7,15.4
					V217c0,0,9-1.8,11.8-6.3c0,0-8.1,7.2-11.8,9.9l0.9,9C323.6,230.6,322.7,233.3,321.8,231.5z"/>
				<path class="st2" d="M310.1,369.8c0,0-4.5-8.1-11.8-12.7c0,0-8.1,8.1-27.1,5.4c0,0,21.7,0,26.2-8.1l-12.7-10.8
					c0,0-4.5,9-37.1,6.3c0,0,28-0.9,35.3-9l-18.1-8.1c0,0-11.8,5.4-22.6,7.2c0,0,16.3-7.2,18.1-9c0,0-27.1-9.9-32.5-10.8l-16.3,3.6
					l13.6-5.4l-16.3-7.2h-9.9l6.3-2.7l-10.8-7.2l11.8,5.4l-0.9-5.4l3.6,7.2l19.9,9c0,0-3.6-11.8-9-17.2c0,0,9.9,8.1,10.8,18.1
					l23.5,8.1l-8.1-16.3l10.8,17.2c0,0,19,6.3,23.5,9c0,0-3.6-15.4-4.5-19c0,0,7.2,15.4,8.1,20.8l13.6,10.8l-1.8-11.8
					c0,0,4.5,14.5,4.5,17.2c0,0,10.8,10.8,11.8,12.7C312.8,369.8,311.9,370.7,310.1,369.8z"/>
				<path class="st2" d="M332.7,275.8l13.6-9c0,0,9.9,6.3,17.2,8.1c0,0-12.7-7.2-14.5-10.8l18.1-7.2c0,0,8.1,7.2,16.3,7.2
					c0,0-11.8-4.5-13.6-9l11.8-5.4c0,0,11.8,5.4,19,4.5c0,0-15.4-3.6-16.3-6.3l11.8-6.3c0,0,7.2,0.9,14.5,0l-10.8-1.8l13.6-9.9
					l-15.4,8.1l2.7-9l-6.3,11.8l-15.4,7.2l2.7-8.1c0,0-4.5,7.2-5.4,9l-14.5,7.2c0,0,1.8-14.5,9-20.8c0,0-9.9,7.2-11.8,21.7
					c0,0-18.1,8.1-21.7,10.8c0.9-1.8,4.5-14.5,10.8-19c0,0-9.9,7.2-12.7,19.9l-4.5,6.3L332.7,275.8z"/>
				<path class="st2" d="M331.7,369.8c0,0,4.5-8.1,11.8-12.7c0,0,8.1,8.1,27.1,5.4c0,0-21.7,0-26.2-8.1l12.7-10.8
					c0,0,4.5,9,37.1,6.3c0,0-28-0.9-35.3-9l18.1-8.1c0,0,11.8,5.4,22.6,7.2c0,0-16.3-7.2-18.1-9c0,0,27.1-9.9,32.5-10.8l16.3,3.6
					l-12.7-4.5l16.3-7.2h9.9l-7.2-1.8l10.8-7.2l-11.8,5.4l0.9-5.4l-3.6,7.2l-19.9,9c0,0,3.6-11.8,9-17.2c0,0-9.9,8.1-10.8,18.1
					l-23.5,8.1l8.1-16.3l-10.8,17.2c0,0-19,6.3-23.5,9c0,0,3.6-15.4,4.5-19c0,0-7.2,15.4-8.1,20.8l-13.6,10.8l1.8-13.6
					c0,0-4.5,14.5-4.5,17.2c0,0-10.8,10.8-11.8,12.7C329.9,369.8,330.8,370.7,331.7,369.8z"/>
			</g>
		</g>
	</g>
</g>
</svg>
